<svg width="22" height="29" viewBox="0 0 22 29" fill="none" xmlns="http://www.w3.org/2000/svg">
<path d="M15.3005 0.315094H4.10525C2.46972 0.315094 1.13852 1.64513 1.13852 3.27729V14.2308H0.8487C0.188591 14.2308 -0.346642 14.7647 -0.346642 15.4243V22.6632C-0.346642 23.3228 0.188591 23.8569 0.8487 23.8569H1.13852V25.1842C1.13852 26.8182 2.46978 28.1464 4.10525 28.1464H19.3808C21.0153 28.1464 22.3466 26.8181 22.3466 25.1842V7.32568L15.3005 0.315094ZM5.36297 20.8191C5.70609 20.8191 6.0865 20.7446 6.3107 20.6555L6.48189 21.5415C6.27324 21.6462 5.8031 21.7582 5.19173 21.7582C3.45335 21.7582 2.55812 20.6782 2.55812 19.2481C2.55812 17.535 3.78173 16.5816 5.30343 16.5816C5.89289 16.5816 6.3403 16.7007 6.54161 16.8045L6.3107 17.706C6.07922 17.6087 5.75853 17.5196 5.35575 17.5196C4.45276 17.5196 3.75167 18.0636 3.75167 19.1808C3.75167 20.186 4.34847 20.8191 5.36297 20.8191ZM19.3807 26.3323H4.10525C3.47197 26.3323 2.95622 25.8174 2.95622 25.1842V23.8569H17.1961C17.8564 23.8569 18.3917 23.3228 18.3917 22.6632V15.4243C18.3917 14.7647 17.8564 14.2308 17.1961 14.2308H2.95622V3.27729C2.95622 2.64584 3.47197 2.13094 4.10525 2.13094L14.6209 2.12003V6.00102C14.6209 7.13456 15.5421 8.05527 16.6783 8.05527L20.4859 8.04441L20.5287 25.1842C20.5287 25.8174 20.014 26.3323 19.3807 26.3323ZM8.48378 19.5756C7.64815 19.2854 7.10338 18.8233 7.10338 18.0936C7.10338 17.2365 7.81945 16.5815 9.00577 16.5815C9.57251 16.5815 9.99079 16.7007 10.2887 16.8345L10.0354 17.7506C9.83406 17.6542 9.47591 17.5122 8.98346 17.5122C8.491 17.5122 8.25229 17.7361 8.25229 17.9963C8.25229 18.3165 8.53564 18.4584 9.18482 18.704C10.0728 19.0316 10.4905 19.4937 10.4905 20.2016C10.4905 21.043 9.84129 21.7582 8.46135 21.7582C7.88686 21.7582 7.31971 21.6089 7.03637 21.4524L7.26774 20.5144C7.57351 20.671 8.04365 20.8265 8.52835 20.8265C9.05046 20.8265 9.32652 20.6109 9.32652 20.2833C9.32658 19.9704 9.08787 19.7912 8.48378 19.5756ZM12.5143 19.5756C11.6788 19.2854 11.1339 18.8233 11.1339 18.0936C11.1339 17.2365 11.8501 16.5815 13.0363 16.5815C13.6036 16.5815 14.0208 16.7007 14.3197 16.8345L14.066 17.7506C13.8646 17.6542 13.5065 17.5122 13.014 17.5122C12.5216 17.5122 12.2828 17.7361 12.2828 17.9963C12.2828 18.3165 12.5662 18.4584 13.2154 18.704C14.1033 19.0316 14.5212 19.4937 14.5212 20.2016C14.5212 21.043 13.872 21.7582 12.492 21.7582C11.9175 21.7582 11.3503 21.6089 11.0669 21.4524L11.2984 20.5144C11.6041 20.671 12.0742 20.8265 12.5589 20.8265C13.081 20.8265 13.3571 20.6109 13.3571 20.2833C13.3571 19.9704 13.1183 19.7912 12.5143 19.5756Z" fill="#2A7AE4"/>
</svg>
