<svg width="28" height="25" viewBox="0 0 28 25" fill="none" xmlns="http://www.w3.org/2000/svg">
<path d="M10 0.666687L7.56 3.33335H3.33333C1.86667 3.33335 0.666667 4.53335 0.666667 6.00002V22C0.666667 23.4667 1.86667 24.6667 3.33333 24.6667H24.6667C26.1333 24.6667 27.3333 23.4667 27.3333 22V6.00002C27.3333 4.53335 26.1333 3.33335 24.6667 3.33335H20.44L18 0.666687H10ZM14 20.6667C10.32 20.6667 7.33333 17.68 7.33333 14C7.33333 10.32 10.32 7.50002 14 7.50002C17.68 7.50002 20.6667 10.32 20.6667 14C20.6667 17.68 17.68 20.6667 14 20.6667Z" fill="#2A7AE4"/>
</svg>
