<svg width="640" height="384" viewBox="0 0 640 384" fill="none" xmlns="http://www.w3.org/2000/svg">
<path d="M192 0C86 0 0 86 0 192C0 298 86 384 192 384H448C554 384 640 298 640 192C640 86 554 0 448 0H192ZM496 184C473.9 184 456 166.1 456 144C456 121.9 473.9 104 496 104C518.1 104 536 121.9 536 144C536 166.1 518.1 184 496 184ZM472 240C472 262.1 454.1 280 432 280C409.9 280 392 262.1 392 240C392 217.9 409.9 200 432 200C454.1 200 472 217.9 472 240ZM168 136C168 122.7 178.7 112 192 112C205.3 112 216 122.7 216 136V168H248C261.3 168 272 178.7 272 192C272 205.3 261.3 216 248 216H216V248C216 261.3 205.3 272 192 272C178.7 272 168 261.3 168 248V216H136C122.7 216 112 205.3 112 192C112 178.7 122.7 168 136 168H168V136Z" fill="#2A7AE4"/>
</svg>
