<svg width="314" height="240" viewBox="0 0 314 240" fill="none" xmlns="http://www.w3.org/2000/svg">
<path d="M136.133 239.01C142.002 241.073 148.306 236.784 148.306 230.594V25.6773C148.306 23.3969 147.436 21.1164 145.589 19.7047C134.938 11.2344 110.485 0.375 78.75 0.375C51.3082 0.375 25.6595 7.59648 10.3356 13.4605C4.19514 15.8496 0.5 21.9309 0.5 28.5008V229.562C0.5 236.023 7.45556 240.53 13.596 238.521C30.7132 232.82 57.829 226.25 78.75 226.25C97.1714 226.25 121.679 233.852 136.133 239.01ZM177.867 239.01C192.321 233.852 216.829 226.25 235.25 226.25C256.171 226.25 283.287 232.82 300.404 238.521C306.544 240.584 313.5 236.023 313.5 229.562V28.5008C313.5 21.9309 309.805 15.8496 303.664 13.5148C288.34 7.59648 262.692 0.375 235.25 0.375C203.515 0.375 179.062 11.2344 168.411 19.7047C166.618 21.1164 165.694 23.3969 165.694 25.6773V230.594C165.694 236.784 172.052 241.073 177.867 239.01Z" fill="#2A7AE4"/>
</svg>
